<svg xmlns="http://www.w3.org/2000/svg" fill="currentColor" viewBox="0 0 119.52538940000001 99.0834682080925" id="svg2"
     version="1.1" style="max-height: 500px" width="119.52538940000001" height="99.0834682080925">
    <defs id="defs6"/>

    <g transform="matrix(1.3333333,0,0,-1.3333333,0,126.04)" id="g8">
        <g transform="scale(0.1)" id="g10">
            <path id="path12" style="fill:currentColor;fill-opacity:1;fill-rule:nonzero;stroke:none"
                  d="M 10.3281,674.277 C 38.0508,797.738 159.488,909.566 285.84,926.883 c 12.015,1.644 25.363,2.273 42.254,1.699 -5.914,-8.957 -10.844,-16.496 -14.797,-22.656 -14.024,-21.86 -17.52,-44.434 -4.274,-67.988 12.45,-22.141 31.059,-32.95 56.848,-32.645 39.152,0.461 78.328,0.437 117.473,-0.383 48.754,-1.027 72.402,-25.41 72.113,-72.836 -0.285,-47.117 -24.07,-70.101 -73.57,-70.683 -26.703,-0.313 -53.422,0.386 -80.11,-0.297 -36.203,-0.934 -60.992,-27.059 -61.125,-63.324 -0.132,-36.633 23.844,-63.04 60.227,-64.325 31.117,-1.101 62.309,0.047 93.449,-0.613 33.828,-0.715 58.82,-24.691 60.715,-58.242 0.902,-15.961 0.984,-32.102 -0.309,-48.02 -2.539,-31.222 -26.836,-54.328 -58.054,-54.804 -41.825,-0.637 -83.68,-0.672 -125.5,0.179 -30.696,0.629 -57.528,-6.668 -71.75,-35.875 -13.844,-28.418 -4.703,-55.472 13.468,-78.746 1.493,-1.906 3.778,-5.004 9.637,-12.332 -15.008,0 -46.363,3.18 -54.113,4.84 C 126.359,280.277 45.3633,366.652 8.66016,508.859 7.80078,512.191 0,546.93 0,593.113 c 0,44.926 9.21094,76.192 10.3281,81.164"/>
            <path id="path14" style="fill:currentColor;fill-opacity:1;fill-rule:nonzero;stroke:none"
                  d="m 4301.91,709.582 c 5.34,-58.344 13.13,-116.594 15.42,-175.055 3.24,-82.668 3.84,-165.511 2.76,-248.246 -0.6,-45.164 -31.26,-69.636 -77.95,-68.613 -41.85,0.914 -69.58,28.059 -69.69,71.434 -0.49,194.984 -0.45,389.968 -0.08,584.949 0.07,37.144 26.53,64.726 62.83,66.906 19.49,1.172 39.12,-0.156 58.68,0.207 41.02,0.766 66.08,-18.387 79.37,-57.457 42.67,-125.363 86.6,-250.293 130.1,-375.371 1.39,-3.996 3.37,-7.781 7.85,-17.977 6.06,14.043 10.53,22.817 13.71,32.043 43.06,125.235 85.42,250.723 129.64,375.551 4.83,13.637 19.16,32.293 30.79,33.613 40.68,4.625 82.77,7.321 123.01,1.59 27.28,-3.883 38.33,-31.476 38.25,-60.199 -0.22,-72.117 0.01,-144.234 -0.01,-216.355 -0.04,-121.973 0.44,-243.954 -0.45,-365.926 -0.45,-61.965 -61.31,-94.449 -115.35,-63.071 -20.35,11.813 -30.61,29.758 -31.31,52.536 -0.98,32 -1.9,64.109 -0.41,96.058 5.06,108.285 11.2,216.52 16.85,324.778 0.18,3.425 -0.5,6.894 -4.78,11.582 -7.68,-20.188 -15.69,-40.258 -23,-60.579 -37.33,-103.742 -74.57,-207.519 -111.65,-311.347 -9.67,-27.047 -23.02,-50.516 -53.58,-57.809 -34.69,-8.273 -65.52,11.281 -80.93,52.762 -30.03,80.828 -59.51,161.867 -88.66,243.019 -15.83,44.04 -30.52,88.489 -45.73,132.75 -1.89,-0.589 -3.78,-1.183 -5.68,-1.773"/>
            <path id="path16" style="fill:currentColor;fill-opacity:1;fill-rule:nonzero;stroke:none"
                  d="m 2791.37,701.895 c 50.55,47.761 109.37,81.472 175.38,81.496 65.72,0.023 117.46,-25.036 151.44,-86.473 13.73,11.152 24.68,19.687 35.24,28.68 48.85,41.605 102.96,64.886 169.22,55.136 64.3,-9.464 106.66,-45.039 124.78,-105.379 11.1,-36.984 17.13,-76.671 18.02,-115.316 2.4,-104.125 0.22,-208.351 1.26,-312.523 0.24,-24.586 0,-31.871 0,-31.871 l -167.86,0.031 c 0,0 -0.22,9.164 0,32.457 0.84,89.926 0.61,179.871 -0.17,269.801 -0.21,23.937 -1.91,48.195 -6.25,71.691 -7.07,38.281 -34.63,55.578 -72.54,48.465 -49.31,-9.258 -78.54,-43.942 -78.56,-93.41 -0.03,-98.84 -0.54,-197.684 0.42,-296.512 0.22,-23.484 0,-32.59 0,-32.59 l -168.2,0.242 c 0,0 -0.16,7.637 0,28.043 0.71,95.274 0.52,190.555 0.01,285.828 -0.1,19.497 -1.67,39.2 -4.9,58.414 -6.18,36.774 -29.44,53.911 -66,50.727 -49.07,-4.269 -86.25,-44 -86.25,-92.211 -0.02,-99.73 -0.71,-199.469 0.46,-299.183 0.29,-24.719 0,-31.79 0,-31.79 l -168.1,0.329 c 0,0 -0.03,5.683 0,23.117 0.35,169.183 0.38,338.371 -0.07,507.554 -0.05,18.254 0,22.438 0,22.438 l 142.67,0.242 v -67.433"/>
            <path id="path18" style="fill:currentColor;fill-opacity:1;fill-rule:nonzero;stroke:none"
                  d="m 868.223,587.41 c 0,-91.695 0.843,-183.406 -0.676,-275.078 -0.324,-19.609 -4.512,-42.555 -15.582,-57.574 -9.961,-13.516 -31.641,-25.313 -48.449,-25.723 -99.649,-2.437 -199.387,-1.863 -299.09,-1.164 -37.703,0.266 -61.676,27.258 -61.727,65.637 -0.051,39.445 22.688,66.191 60.34,67.32 43.578,1.305 87.238,0.613 130.852,-0.008 31.195,-0.445 60.863,5.254 74.773,35.7 15.691,34.343 19.379,72.574 -4.359,104.261 -10.586,14.129 -32.969,24.078 -51.313,26.68 -30.543,4.328 -62.238,-0.336 -93.277,1.582 -50.852,3.137 -78.945,44.062 -64.219,90.82 9.039,28.692 30.949,44.567 64.996,45.391 29.36,0.707 58.754,-0.231 88.129,0.101 42.734,0.485 67.16,25.141 68.317,68.301 1.246,46.707 -22.2,76.168 -65.02,77.703 -43.563,1.563 -87.227,0.196 -130.844,0.309 -39.558,0.105 -67.554,27.371 -68.074,65.98 -0.555,41.211 23.59,66.84 65.469,67.114 91.691,0.597 183.39,0.636 275.082,0.203 49.394,-0.238 73.847,-25.25 74.265,-77.125 0.754,-93.473 0.215,-186.953 0.215,-280.43 0.063,0 0.125,0 0.192,0"/>
            <path id="path20" style="fill:currentColor;fill-opacity:1;fill-rule:nonzero;stroke:none"
                  d="m 1081.93,698.563 c 10.76,12.039 26.31,25.054 34.27,31.515 53.53,43.457 115.15,61.11 185.1,50.453 58.39,-8.894 99.75,-41.09 117.48,-95.808 12.67,-39.086 19.33,-81.524 20.41,-122.68 2.7,-103.117 0.64,-206.352 0.64,-309.539 0,-35.852 0,-36.336 0,-36.336 l -167.59,-0.465 c 0,0 -0.1,9.195 0,32.453 0.42,101.418 -0.47,202.844 -0.9,304.266 -0.02,3.555 -0.15,7.113 -0.34,10.668 -3.68,68.437 -47.02,95.367 -109.26,65.797 -33.95,-16.133 -57.85,-37.887 -56.19,-83.442 3.6,-99.519 0.51,-199.265 1.49,-298.902 0.23,-22.965 0,-30.875 0,-30.875 l -168.102,0.273 c 0,0 -0.055,4.536 0,23.868 0.472,169.046 0.382,338.097 0.062,507.144 -0.031,15.969 0,22.094 0,22.094 l 142.93,0.305 v -70.789"/>
            <path id="path22" style="fill:currentColor;fill-opacity:1;fill-rule:nonzero;stroke:none"
                  d="m 2014.83,768.563 c 55.27,0 166.32,-1.063 166.32,-1.063 0,0 119.16,-372.855 122.75,-381.02 3.84,11.727 105.47,382.801 105.47,382.801 0,0 110.42,-0.336 156.39,-0.336 -1.57,-10.851 -131.75,-399.929 -199.63,-586.382 -15.74,-43.208 -42.3,-84.9458 -72.54,-119.8638 -58.33,-67.35936 -137.51,-70.08983 -219.05,-55.56639 -8.04,1.42969 -20.18,3.89849 -20.18,3.89849 l 30.72,129.3787 c 0,0 14.97,-3.601 23.25,-4.683 55.17,-7.192 92.34,15.277 108.34,67.808 4.75,15.586 4.73,35.899 -1.11,50.934 -62.89,161.754 -196.57,500.707 -200.73,514.094"/>
            <path id="path24" style="fill:currentColor;fill-opacity:1;fill-rule:nonzero;stroke:none"
                  d="m 3733.99,555.355 c 58.44,0 186.27,0.75 186.27,0.75 0,0 0.16,10.68 0,16.774 -0.87,32.344 -19.44,61.859 -47.83,73.937 -62.85,26.731 -133.89,-18.164 -138.44,-91.461 z m 3.77,-114.386 c -0.31,-44.344 31.7,-85.078 76.57,-100.66 52.12,-18.106 102.42,-10.664 149.68,14.226 9.88,5.203 21.43,11.613 21.43,11.613 l 58.9,-100.82 c 0,0 -8.68,-6.297 -11.15,-7.918 -115.92,-76.351 -294.85,-81.805 -396.03,33.824 -116.85,133.536 -83.06,365.688 66.13,456.774 114.59,69.953 323.24,48.222 356.43,-162.379 6.01,-38.18 3.81,-143.465 3.81,-143.465 0,0 -208.38,0.301 -297.37,0.145 -9.52,-0.02 -19.04,-0.879 -28.4,-1.34"/>
            <path id="path26" style="fill:currentColor;fill-opacity:1;fill-rule:nonzero;stroke:none"
                  d="m 1753.36,347.258 c 22,0 38.56,0.004 55.11,0 50.74,-0.012 101.48,-0.504 152.2,0.222 18.02,0.262 25.74,0 25.74,0 0,0 -0.3,-81.5 -0.17,-109.98 0.06,-13.812 0,-21.316 0,-21.316 -138.84,0.472 -436.82,0.863 -436.82,0.863 h -7.6 c -0.91,39.73 0,99.508 0,99.508 63.56,86.828 222.24,320.726 222.24,320.726 l -199.19,-0.32 -0.02,132.113 407.15,-1.023 V 672.91 c 0,0 -211.21,-314.285 -218.64,-325.652"/>
            <path id="path28" style="fill:currentColor;fill-opacity:1;fill-rule:nonzero;stroke:none"
                  d="m 5016.34,580.602 c 0.02,94.343 -0.14,188.683 0.09,283.027 0.13,51.824 27.25,78.324 79.41,78.512 57.46,0.207 85.4,-24.817 85.52,-78.176 0.29,-141.512 0.09,-283.024 0.06,-424.539 -0.01,-62.063 20.73,-82.758 83.37,-82.891 42.72,-0.086 85.45,0.379 128.16,-0.16 44.97,-0.566 73.42,-28.516 73.12,-70.68 -0.29,-40.265 -29.18,-67.941 -72.94,-68.101 -100.57,-0.367 -201.15,-0.223 -301.72,0.086 -47.12,0.148 -74.67,27.168 -74.93,74.558 -0.54,96.117 -0.16,192.242 -0.14,288.364"/>
        </g>
    </g>
</svg>