<svg xmlns="http://www.w3.org/2000/svg" version="1.1" viewBox="7.99 8 84.02 84">
    <path d="m91.398 48.602-40-40c-0.80078-0.80078-2-0.80078-2.8008 0l-40 40c-0.59766 0.59766-0.79688 1.3984-0.39844 2.1992 0.30078 0.69922 1 1.1992 1.8008 1.1992h8v38c0 1.1016 0.89844 2 2 2h60c1.1016 0 2-0.89844 2-2v-38h8c0.80078 0 1.5-0.5 1.8008-1.1992 0.39844-0.80078 0.19922-1.6016-0.40234-2.1992zm-30.398 39.398h-22v-26h22zm19-40c-1.1016 0-2 0.89844-2 2v38h-13v-28c0-1.1016-0.89844-2-2-2h-26c-1.1016 0-2 0.89844-2 2v28h-13v-38c0-1.1016-0.89844-2-2-2h-5.1992l35.199-35.199 35.199 35.199z"></path>
</svg>