<svg xmlns="http://www.w3.org/2000/svg" version="1.1" viewBox="18.41 24.63 63.17 50.37">
    <g>
        <path d="m25 75c-0.86328 0-1.5625-0.69922-1.5625-1.5625v-43.75c0-0.86328 0.69922-1.5625 1.5625-1.5625s1.5625 0.69922 1.5625 1.5625v43.75c0 0.86328-0.69922 1.5625-1.5625 1.5625z"></path>
        <path d="m79.688 53.125h-54.688c-0.86328 0-1.5625-0.69922-1.5625-1.5625s0.69922-1.5625 1.5625-1.5625h54.688c0.86328 0 1.5625 0.69922 1.5625 1.5625s-0.69922 1.5625-1.5625 1.5625z"></path>
        <path d="m19.973 34.953c-0.34375 0-0.69141-0.11328-0.97656-0.34375-0.67188-0.54297-0.77734-1.5273-0.23828-2.1953l5.7969-7.2031c0.29297-0.36328 0.73437-0.57813 1.2031-0.58203h0.015626c0.46094 0 0.90234 0.20703 1.1992 0.5625l6.0156 7.2031c0.55078 0.66406 0.46484 1.6445-0.19922 2.1992-0.66016 0.55469-1.6445 0.46484-2.1992-0.19922l-4.793-5.7422-4.6055 5.7188c-0.30859 0.38281-0.76172 0.58203-1.2188 0.58203z"></path>
        <path d="m72.215 59.75c-0.46094 0-0.91406-0.19922-1.2227-0.58594-0.53906-0.67578-0.42969-1.6562 0.24219-2.1953l6.2852-5.0273-6.2188-4.9648c-0.67578-0.53906-0.78516-1.5195-0.24609-2.1953 0.53906-0.67188 1.5195-0.78516 2.1953-0.24609l7.7461 6.1836c0.37109 0.29688 0.58594 0.74609 0.58594 1.2188 0 0.47656-0.21484 0.92578-0.58594 1.2227l-7.8125 6.25c-0.28906 0.23047-0.63281 0.34375-0.97656 0.34375z"></path>
        <path d="m47.344 64.441c-0.13281 0-0.21094-0.015625-0.21875-0.003906-4.6758 0-13.672-2.4883-13.672-11.898 0-8.7227-7.4883-9.4844-7.8086-9.5156-0.85938-0.074219-1.4961-0.82813-1.4219-1.6875 0.070313-0.85938 0.80078-1.4961 1.6758-1.4297 3.6953 0.29297 10.68 3.3086 10.68 12.629 0 8.6758 10.203 8.7734 10.637 8.7734 0.097656 0 2.625 0.082031 4.6406-1.7773 1.6875-1.5625 2.6094-4.0586 2.7422-7.4219 0.17188-4.4297 1.457-7.625 3.8281-9.4922 2.8477-2.2383 6.1445-1.6133 6.2852-1.5859 0.84375 0.16797 1.3945 0.99219 1.2266 1.8398s-0.99609 1.3945-1.8398 1.2266c-0.070312-0.015625-2.0742-0.35938-3.7695 1.0039-1.5977 1.2812-2.4727 3.6797-2.6094 7.1328-0.16406 4.2539-1.4414 7.5-3.793 9.6445-2.6289 2.3906-5.7422 2.5625-6.582 2.5625z"></path>
    </g>
</svg>