<svg xmlns="http://www.w3.org/2000/svg" version="1.1" x="0px" y="0px" style="enable-background:new 0 0 100 100;"
     xml:space="preserve" viewBox="0.24 0.24 99.52 99.52"><g><path d="M82.63,47.76c1.67,0,3.3-0.67,4.57-1.94l10.66-10.66c1.83-1.83,2.39-4.49,1.45-6.94L88.86,1.26   c-0.2-0.5-0.63-0.88-1.16-0.99c-0.53-0.11-1.08,0.05-1.46,0.43L75.57,11.37c-0.48,0.48-0.58,1.21-0.31,1.81l6.35,16.4l-13.53-5.24   c-2.43-0.92-5.07-0.35-6.9,1.48L50.52,36.47c-1.87,1.87-2.45,4.53-1.5,6.94l5.24,13.51l-13.51-5.26c-2.43-0.91-5.07-0.35-6.9,1.48   L23.17,63.82c0,0,0,0,0,0c-1.86,1.86-2.42,4.51-1.47,6.91l3.56,9.17l-11.99-4.61c-0.61-0.34-1.39-0.25-1.91,0.27L0.71,86.24   c-0.38,0.38-0.55,0.93-0.43,1.46c0.11,0.53,0.48,0.96,0.99,1.16l26.96,10.45c0.77,0.3,1.57,0.45,2.36,0.45   c1.25,0,2.46-0.44,3.54-1.15c0.24-0.07,0.48-0.19,0.67-0.38l8.38-8.38c0,0,0,0,0,0c0.63-0.63,1.1-1.33,1.43-2.11   c0.65-1.52,0.67-3.19,0.05-4.86l-5.26-13.51l13.5,5.25c0.79,0.32,1.6,0.47,2.41,0.47c1.67,0,3.3-0.67,4.57-1.94l10.66-10.66   c1.83-1.83,2.39-4.49,1.45-6.94l-5.26-13.51l13.5,5.25C81.01,47.61,81.82,47.76,82.63,47.76z M86.76,4.7l9.57,24.68   c0.49,1.26,0.22,2.58-0.73,3.52l-6.72,6.72c-0.06-0.24-0.14-0.49-0.24-0.73l-2.74-7.09c0,0,0-0.01-0.01-0.01l-7.32-18.91L86.76,4.7   z M63.45,28.07c0.94-0.94,2.25-1.22,3.49-0.75l16.24,6.29l2.49,6.43c0.49,1.26,0.22,2.58-0.73,3.52c-0.97,0.97-2.29,1.26-3.54,0.75   L64.5,37.77l-7.08-2.78c-0.22-0.09-0.45-0.16-0.68-0.22L63.45,28.07z M29.38,96.33L4.7,86.76l8.18-8.18l13.94,5.36l4.73,12.17   l0.1,0.27C31.06,96.59,30.28,96.68,29.38,96.33z M35.36,67.82l6.31,16.2c0.33,0.88,0.33,1.7,0,2.48c-0.17,0.4-0.4,0.75-0.74,1.09   l-6.66,6.66l-4.69-12.11c-0.01-0.02-0.03-0.04-0.04-0.06l-4.86-12.51c-0.57-1.44,0.02-2.75,0.76-3.48c0.29-0.29,0.63-0.5,0.98-0.67   c0.1-0.05,0.2-0.08,0.3-0.11c0.28-0.1,0.57-0.16,0.86-0.17c0.1-0.01,0.2-0.02,0.3-0.02c0.36,0.01,0.72,0.07,1.07,0.2L35.36,67.82z    M54.07,71.64L37.17,65.1l-7.08-2.78c-0.22-0.09-0.45-0.16-0.68-0.22l6.71-6.71c0.94-0.94,2.25-1.22,3.49-0.75l16.22,6.32l2.51,6.4   c0.49,1.27,0.22,2.58-0.73,3.52C56.64,71.86,55.32,72.15,54.07,71.64z M62.68,40.49L69,56.7c0.49,1.27,0.22,2.58-0.73,3.52   l-6.72,6.72c-0.06-0.25-0.14-0.49-0.24-0.74L52,42.24c-0.48-1.23-0.19-2.54,0.78-3.51c0.29-0.29,0.62-0.49,0.96-0.65   c0.1-0.05,0.2-0.08,0.3-0.11c0.27-0.09,0.55-0.15,0.84-0.17c0.1-0.01,0.2-0.02,0.3-0.02c0.36,0.01,0.72,0.07,1.08,0.2L62.68,40.49z   "></path></g> </svg>