<svg xmlns="http://www.w3.org/2000/svg" version="1.1" viewBox="10.78 7.98 78.65 84.02">
    <path d="m74.199 62.602-8.8984-6.3008c1-1.8984 1.5-4.1016 1.5-6.3984 0-3.1016-1.1016-6-2.8008-8.3984l11.398-11.398c1.5 0.89844 3.1016 1.3984 4.8008 1.3984 2.3008 0 4.6016-0.89844 6.3984-2.6016 3.5-3.5 3.5-9.1992 0-12.699s-9.1992-3.5-12.699 0c-1.6992 1.6992-2.6016 4-2.6016 6.3984 0 1.6992 0.5 3.3984 1.3984 4.8008l-11.496 11.398c-2.3008-1.6992-5.1992-2.8008-8.3984-2.8008-3.1016 0-6 1.1016-8.3984 2.8008l-17-17c2.1992-3.5 1.8008-8.1016-1.3008-11.199-3.5-3.5-9.1992-3.5-12.699 0s-3.5 9.1992 0 12.699c1.8008 1.8008 4.1016 2.6016 6.3984 2.6016 1.6992 0 3.3008-0.5 4.8008-1.3984l17 17c-1.8008 2.3008-2.8008 5.1992-2.8008 8.3984 0 3.1992 1.1016 6 2.8008 8.3984l-11.301 11.398c-3.5-2.1992-8.1016-1.8008-11.102 1.3008-1.6992 1.6992-2.6016 4-2.6016 6.3984 0 2.3984 0.89844 4.6992 2.6016 6.3984 1.8008 1.8008 4.1016 2.6016 6.3984 2.6016 2.3008 0 4.6016-0.89844 6.3984-2.6016 3-3 3.3984-7.6992 1.3008-11.102l11.398-11.398c1.8008 1.3984 4 2.3008 6.3984 2.6016v10.398c-1.6016 0.39844-3.1016 1.1992-4.3984 2.3984-3.5 3.5-3.5 9.1992 0 12.699 1.8008 1.8008 4.1016 2.6016 6.3984 2.6016 2.3008 0 4.6016-0.89844 6.3984-2.6016 3.5-3.5 3.5-9.1992 0-12.699-1.1992-1.1992-2.8008-2-4.3984-2.3984l0.007812-10.496c3.1992-0.5 6-2 8.1016-4.1992l8.8984 6.3008c-0.39844 1.1016-0.69922 2.1992-0.69922 3.3984 0 2.3984 0.89844 4.6992 2.6016 6.3984 1.8008 1.8008 4.1016 2.6016 6.3984 2.6016 2.3008 0 4.6016-0.89844 6.3984-2.6016 3.5-3.5 3.5-9.1992 0-12.699-3.6992-3.3984-9.1016-3.5-12.602-0.39844zm2.4023-43.5c1-1 2.3008-1.5 3.5-1.5 1.3008 0 2.6016 0.5 3.5 1.5 1.8984 1.8984 1.8984 5.1016 0 7.1016-2 2-5.1016 1.8984-7.1016 0-0.89844-0.89844-1.5-2.1992-1.5-3.5 0.19922-1.4023 0.69922-2.6016 1.6016-3.6016zm-60.301 1.3984c-1.8984-2-1.8984-5.1016 0-7.1016 1-1 2.3008-1.5 3.5-1.5 1.3008 0 2.6016 0.5 3.5 1.5 1.8984 2 1.8984 5.1016 0 7.1016-1.9023 2-5.1016 2-7 0zm12.699 60.398c-1.8984 1.8984-5.1016 1.8984-7.1016 0-0.89844-0.89844-1.5-2.1992-1.5-3.5 0-1.3008 0.5-2.6016 1.5-3.5 1-1 2.3008-1.5 3.5-1.5 1.1992 0 2.6016 0.5 3.5 1.5 2.1016 1.8008 2.1016 5 0.10156 7zm27.398 5.6016c-1.8984 1.8984-5.1016 1.8984-7.1016 0-1.8984-2-1.8984-5.1016 0-7.1016 1.8984-1.8984 5.1016-2 7.1016 0 1.9023 2 1.9023 5.2031 0 7.1016zm-3.5977-26.5c-5.5 0-10-4.5-10-10s4.5-10 10-10 10 4.5 10 10-4.5 10-10 10zm30.898 12.898c-2 2-5.1016 1.8984-7.1016 0-0.89844-0.89844-1.5-2.1992-1.5-3.5 0-1.3008 0.5-2.6016 1.5-3.5 1-1 2.3008-1.5 3.5-1.5 1.3008 0 2.6016 0.5 3.5 1.5 2.1016 1.8008 2.1016 5 0.10156 7z"></path>
</svg>