<svg xmlns="http://www.w3.org/2000/svg" version="1.1" viewBox="4.69 4.68 90.62 90.63">
    <path d="m47.582 82.625c-1.2617 0.12109-2.5391 0.1875-3.832 0.1875-21.559 0-39.062-17.504-39.062-39.062 0-0.86328 0.69922-1.5625 1.5625-1.5625h7.8125c0.58984 0 1.1289 0.33203 1.3945 0.85938l5.4688 10.859h12.832l5.4688-10.859c0.26563-0.52734 0.80469-0.85938 1.3945-0.85938h6.25c0.58984 0 1.1289 0.33203 1.3945 0.85938l4.9844 9.8945c-0.79688 0.78516-1.5469 1.6211-2.2422 2.5l-5.1016-10.125h-4.3242l-5.4688 10.859c-0.26562 0.52734-0.80469 0.85938-1.3945 0.85938h-14.758c-0.58984 0-1.1289-0.33203-1.3945-0.85938l-5.4688-10.859h-5.2539c0.82031 19.109 16.594 34.375 35.902 34.375 0.91016 0 1.8086-0.035156 2.7031-0.10156 0.31641 1.043 0.69531 2.0547 1.1289 3.0391zm23.309-37.297 1.1484-2.2852c0.26563-0.52734 0.80469-0.85938 1.3945-0.85938h7.8125c0.86328 0 1.5625 0.69922 1.5625 1.5625 0 1.293-0.0625 2.5703-0.1875 3.832-0.98438-0.4375-1.9961-0.81641-3.0391-1.1289 0.027344-0.37891 0.050781-0.75781 0.066407-1.1406h-5.2539l-0.058593 0.11328c-0.8125-0.074219-1.6367-0.11328-2.4688-0.11328-0.32813 0-0.65625 0.007812-0.98438 0.019531zm-29.379-19.535-2.4727 11.906c-0.12109 0.57812-0.55469 1.0391-1.125 1.1914l-14.254 3.8203c-0.57031 0.15234-1.1797-0.027344-1.5703-0.46875l-8.7344-9.793c-0.32812-0.37109-0.46484-0.875-0.36328-1.3594l2.668-12.848c0.12109-0.57813 0.55469-1.0391 1.125-1.1914l14.254-3.8203c0.57031-0.15234 1.1758 0.027343 1.5703 0.46875l8.0938 9.0742 4.1797-1.1211 2.4727-11.906c0.12109-0.57812 0.55469-1.0391 1.125-1.1914l14.254-3.8203c0.57031-0.15234 1.1758 0.027344 1.5703 0.46875l8.7344 9.793c0.32813 0.37109 0.46484 0.875 0.36328 1.3594l-2.668 12.848c-0.12109 0.57812-0.55469 1.0391-1.125 1.1914l-14.254 3.8203c-0.57031 0.15234-1.1797-0.027344-1.5703-0.46875l-8.0938-9.0742-4.1758 1.1211zm28.672-9.3008s-7.5703-8.4844-7.5703-8.4844l-12.395 3.3203-2.3125 11.133s7.5703 8.4844 7.5703 8.4844l12.395-3.3203zm-31.695 8.4922s-7.5703-8.4844-7.5703-8.4844l-12.395 3.3203-2.3125 11.133s7.5703 8.4844 7.5703 8.4844l12.395-3.3203zm33.383 23.449c12.934 0 23.438 10.504 23.438 23.438s-10.504 23.438-23.438 23.438-23.438-10.504-23.438-23.438 10.504-23.438 23.438-23.438zm0 3.125c-11.211 0-20.312 9.1016-20.312 20.312 0 11.211 9.1016 20.312 20.312 20.312 11.211 0 20.312-9.1016 20.312-20.312 0-11.211-9.1016-20.312-20.312-20.312zm-6.5117 17.746c-0.40625 0.14453-0.84375 0.22266-1.3008 0.22266-2.1562 0-3.9062-1.75-3.9062-3.9062s1.75-3.9062 3.9062-3.9062c0.42969 0 0.84766 0.070312 1.2344 0.19922l2.2383-2.4883c-0.22266-0.49219-0.34766-1.0391-0.34766-1.6172 0-2.1562 1.75-3.9062 3.9062-3.9062s3.9062 1.75 3.9062 3.9062-1.75 3.9062-3.9062 3.9062c-0.42969 0-0.84766-0.070313-1.2344-0.19922l-2.2383 2.4883c0.22266 0.49219 0.34766 1.0391 0.34766 1.6172 0 0.55078-0.11328 1.0742-0.32031 1.5508l3.8164 4.0898c1.0391-0.60547 2.2461-0.95312 3.5352-0.95312 1.2734 0 2.4688 0.33984 3.5 0.93359l2.2969-2.4883c-0.21094-0.48047-0.32812-1.0117-0.32812-1.5703 0-2.1562 1.75-3.9062 3.9062-3.9062s3.9062 1.75 3.9062 3.9062-1.75 3.9062-3.9062 3.9062c-0.44922 0-0.87891-0.074219-1.2812-0.21484l-2.2969 2.4883c0.77734 1.1328 1.2344 2.5 1.2344 3.9766 0 3.8789-3.1523 7.0312-7.0312 7.0312-2.1875 0-4.1406-1-5.4336-2.5703l-1.6055 0.80078c0.003907 0.066407 0.003907 0.13672 0.003907 0.20313 0 2.1562-1.75 3.9062-3.9062 3.9062s-3.9062-1.75-3.9062-3.9062 1.75-3.9062 3.9062-3.9062c0.95312 0 1.8242 0.33984 2.5039 0.90625l1.6016-0.80078c-0.12891-0.53516-0.19922-1.0938-0.19922-1.668 0-1.4609 0.44531-2.8203 1.2109-3.9453l-3.8164-4.0898zm-1.3008 12.723c-0.42969 0-0.78125 0.35156-0.78125 0.78125 0 0.42969 0.35156 0.78125 0.78125 0.78125 0.42969 0 0.78125-0.35156 0.78125-0.78125 0-0.42969-0.35156-0.78125-0.78125-0.78125zm20.312-15.625c-0.42969 0-0.78125 0.35156-0.78125 0.78125 0 0.42969 0.35156 0.78125 0.78125 0.78125 0.42969 0 0.78125-0.35156 0.78125-0.78125 0-0.42969-0.35156-0.78125-0.78125-0.78125zm-9.375 7.0312c-2.1562 0-3.9062 1.75-3.9062 3.9062s1.75 3.9062 3.9062 3.9062 3.9062-1.75 3.9062-3.9062-1.75-3.9062-3.9062-3.9062zm-10.938-8.5938c-0.42969 0-0.78125 0.35156-0.78125 0.78125 0 0.42969 0.35156 0.78125 0.78125 0.78125 0.42969 0 0.78125-0.35156 0.78125-0.78125 0-0.42969-0.35156-0.78125-0.78125-0.78125zm7.0312-7.8125c-0.42969 0-0.78125 0.35156-0.78125 0.78125 0 0.42969 0.35156 0.78125 0.78125 0.78125 0.42969 0 0.78125-0.35156 0.78125-0.78125 0-0.42969-0.35156-0.78125-0.78125-0.78125z"
          fill-rule="evenodd"></path>
</svg>