<svg xmlns="http://www.w3.org/2000/svg" x="0px" y="0px" viewBox="6.97 3 50.05 58">
    <g data-name="09 Chemical">
        <path d="M56.657,54.114l-9.54-23.49-.007-.012L45.97,27.8V8.816a2.993,2.993,0,0,0-1-5.816h-14a2.992,2.992,0,0,0-1,5.815v18.99l-1.143,2.812,0,.007-3.852,9.484V8.816a2.993,2.993,0,0,0-1-5.816h-14a2.992,2.992,0,0,0-1,5.815V53a8.009,8.009,0,0,0,8,8h0a7.971,7.971,0,0,0,1.088-.083c.089-.012.178-.026.267-.041a7.874,7.874,0,0,0,1.033-.241c.033-.01.064-.025.1-.035a8.138,8.138,0,0,0,.907-.365c.083-.04.166-.078.249-.12s.187-.1.279-.149A4.979,4.979,0,0,0,23.91,61H52.03a5,5,0,0,0,4.627-6.886ZM19.7,58.336c-.06.031-.121.06-.183.089a5.829,5.829,0,0,1-.689.277c-.022.007-.043.017-.065.024a5.857,5.857,0,0,1-.778.181c-.065.012-.131.022-.2.031A5.958,5.958,0,0,1,10.971,53V50.022h4a1,1,0,0,0,0-2h-4v-4h4a1,1,0,0,0,0-2h-4v-4h4a1,1,0,0,0,0-2h-4v-4h4a1,1,0,0,0,0-2h-4v-4h4A1.037,1.037,0,0,0,15.082,26H22.97V53a6.086,6.086,0,0,1-.042.69c-.006.05-.016.1-.023.147-.025.176-.055.35-.1.522-.015.061-.031.122-.047.183-.042.158-.091.313-.146.467-.022.062-.044.124-.068.186-.06.152-.128.3-.2.448-.027.055-.051.111-.08.165a5.824,5.824,0,0,1-.327.548c-.041.061-.088.117-.131.176-.083.113-.167.226-.258.333-.066.079-.137.153-.207.228s-.159.166-.242.246-.151.14-.229.207c-.1.086-.2.167-.31.247-.065.049-.128.1-.2.146A5.742,5.742,0,0,1,19.7,58.336ZM22.97,24h-12V20.022h4a1,1,0,0,0,0-2h-4v-4h4a1,1,0,0,0,0-2h-4V9h12Zm8.267,6,.659-1.624A1.008,1.008,0,0,0,31.97,28V26.022h4a1,1,0,0,0,0-2h-4v-4h4a1,1,0,0,0,0-2h-4v-5h4a1,1,0,0,0,0-2h-4V9h12V28a1,1,0,0,0,.074.377L44.7,30ZM30.971,5h14a1,1,0,0,1,0,2h-14a1,1,0,0,1,0-2Zm-21,0h14a1,1,0,0,1,0,2h-14a1,1,0,0,1,0-2ZM54.514,57.677A2.951,2.951,0,0,1,52.03,59H23.91a2.971,2.971,0,0,1-1.323-.3c.095-.093.18-.2.27-.293.063-.069.128-.136.189-.207a7.783,7.783,0,0,0,.48-.621c.019-.027.04-.051.059-.078a8.114,8.114,0,0,0,.452-.756c.037-.07.068-.143.1-.215.1-.2.188-.4.269-.6.032-.083.061-.166.091-.25.072-.2.136-.409.192-.619.023-.083.045-.165.064-.248.053-.225.093-.453.126-.685.01-.07.024-.138.032-.208A7.921,7.921,0,0,0,24.971,53V50.022h3a1,1,0,0,0,0-2h-3v-2.6l.569-1.4h4.431a1,1,0,0,0,0-2H26.352l1.625-4h4.994a1,1,0,0,0,0-2H28.79l1.625-4h4.556A1.037,1.037,0,0,0,35.082,32H45.516L54.8,54.867A2.964,2.964,0,0,1,54.514,57.677Z"></path>
    </g>
</svg>